<?xml version="1.0" encoding="utf-8" ?>
<svg baseProfile="tiny" height="1024px" version="1.2" width="1024px" xmlns="http://www.w3.org/2000/svg" xmlns:ev="http://www.w3.org/2001/xml-events" xmlns:xlink="http://www.w3.org/1999/xlink"><defs /><polygon fill="black" points="444.0,900.0 445.0,900.0" /><polygon fill="black" points="812.0,899.0" /><polygon fill="black" points="793.0,899.0 795.0,899.0" /><polygon fill="black" points="453.0,899.0 454.0,899.0" /><polygon fill="black" points="437.0,899.0 438.0,899.0" /><polygon fill="black" points="351.0,899.0 352.0,899.0" /><polygon fill="black" points="332.0,899.0 333.0,899.0" /><polygon fill="black" points="818.0,898.0" /><polygon fill="black" points="789.0,898.0" /><polygon fill="black" points="458.0,898.0" /><polygon fill="black" points="434.0,898.0" /><polygon fill="black" points="328.0,898.0" /><polygon fill="black" points="821.0,897.0" /><polygon fill="black" points="620.0,893.0" /><polygon fill="black" points="687.0,892.0" /><polygon fill="black" points="620.0,890.0" /><polygon fill="black" points="169.0,890.0 169.0,894.0" /><polygon fill="black" points="587.0,889.0 587.0,892.0" /><polygon fill="black" points="282.0,888.0" /><polygon fill="black" points="169.0,886.0 169.0,888.0" /><polygon fill="black" points="620.0,884.0 620.0,885.0" /><polygon fill="black" points="169.0,883.0 169.0,884.0" /><polygon fill="black" points="620.0,882.0" /><polygon fill="black" points="506.0,880.0 506.0,883.0" /><polygon fill="black" points="277.0,880.0" /><polygon fill="black" points="687.0,877.0" /><polygon fill="black" points="687.0,875.0" /><polygon fill="black" points="521.0,875.0 521.0,892.0" /><polygon fill="black" points="408.0,875.0" /><polygon fill="black" points="587.0,874.0" /><polygon fill="black" points="169.0,874.0 169.0,881.0" /><polygon fill="black" points="235.0,872.0" /><polygon fill="black" points="407.0,870.0 407.0,871.0" /><polygon fill="black" points="620.0,869.0 620.0,880.0" /><polygon fill="black" points="687.0,868.0" /><polygon fill="black" points="620.0,867.0" /><polygon fill="black" points="232.0,867.0" /><polygon fill="black" points="169.0,865.0 169.0,869.0" /><polygon fill="black" points="620.0,864.0" /><polygon fill="black" points="506.0,864.0" /><polygon fill="black" points="229.0,862.0" /><polygon fill="black" points="587.0,861.0 587.0,866.0" /><polygon fill="black" points="287.0,860.0" /><polygon fill="black" points="620.0,858.0 620.0,862.0" /><polygon fill="black" points="407.0,858.0 407.0,859.0" /><polygon fill="black" points="747.0,857.0" /><polygon fill="black" points="169.0,856.0 169.0,863.0" /><polygon fill="black" points="587.0,855.0" /><polygon fill="black" points="746.0,851.0" /><polygon fill="black" points="587.0,851.0" /><polygon fill="black" points="521.0,851.0 521.0,873.0" /><polygon fill="black" points="409.0,851.0" /><polygon fill="black" points="285.0,851.0 285.0,853.0" /><polygon fill="black" points="587.0,848.0" /><polygon fill="black" points="169.0,848.0 169.0,854.0" /><polygon fill="black" points="620.0,847.0 620.0,855.0" /><polygon fill="black" points="506.0,847.0" /><polygon fill="black" points="169.0,846.0" /><polygon fill="black" points="861.0,845.0" /><polygon fill="black" points="284.0,844.0 284.0,846.0" /><polygon fill="black" points="219.0,844.0" /><polygon fill="black" points="212.0,844.0" /><polygon fill="black" points="204.0,844.0" /><polygon fill="black" points="861.0,842.0 861.0,843.0" /><polygon fill="black" points="745.0,842.0" /><polygon fill="black" points="506.0,842.0" /><polygon fill="black" points="521.0,841.0 521.0,848.0" /><polygon fill="black" points="400.0,841.0 400.0,843.0" /><polygon fill="black" points="587.0,840.0" /><polygon fill="black" points="169.0,840.0 169.0,842.0" /><polygon fill="black" points="687.0,839.0" /><polygon fill="black" points="284.0,839.0 284.0,842.0" /><polygon fill="black" points="861.0,838.0 861.0,840.0" /><polygon fill="black" points="169.0,838.0" /><polygon fill="black" points="745.0,837.0" /><polygon fill="black" points="620.0,837.0 620.0,838.0" /><polygon fill="black" points="587.0,836.0" /><polygon fill="black" points="431.0,834.0" /><polygon fill="black" points="620.0,833.0 620.0,835.0" /><polygon fill="black" points="438.0,832.0 441.0,832.0" /><polygon fill="black" points="285.0,832.0" /><polygon fill="black" points="687.0,831.0" /><polygon fill="black" points="553.0,830.0 553.0,893.0" /><polygon fill="black" points="506.0,830.0 506.0,835.0" /><polygon fill="black" points="461.0,830.0 474.0,830.0" /><polygon fill="black" points="455.0,830.0 458.0,830.0" /><polygon fill="black" points="620.0,829.0" /><polygon fill="black" points="654.0,828.0 654.0,829.0" /><polygon fill="black" points="587.0,827.0" /><polygon fill="black" points="620.0,826.0" /><polygon fill="black" points="286.0,826.0 286.0,827.0" /><polygon fill="black" points="554.0,824.0" /><polygon fill="black" points="397.0,824.0" /><polygon fill="black" points="621.0,823.0" /><polygon fill="black" points="396.0,821.0" /><polygon fill="black" points="749.0,820.0" /><polygon fill="black" points="441.0,820.0" /><polygon fill="black" points="169.0,819.0 169.0,836.0" /><polygon fill="black" points="471.0,817.0" /><polygon fill="black" points="443.0,816.0" /><polygon fill="black" points="394.0,816.0" /><polygon fill="black" points="277.0,814.0" /><polygon fill="black" points="685.0,813.0" /><polygon fill="black" points="637.0,813.0 638.0,813.0" /><polygon fill="black" points="635.0,813.0" /><polygon fill="black" points="568.0,813.0 574.0,813.0" /><polygon fill="black" points="411.0,813.0" /><polygon fill="black" points="169.0,813.0 169.0,817.0" /><polygon fill="black" points="465.0,812.0" /><polygon fill="black" points="449.0,812.0" /><polygon fill="black" points="461.0,811.0" /><polygon fill="black" points="459.0,811.0" /><polygon fill="black" points="454.0,811.0 456.0,811.0" /><polygon fill="black" points="452.0,811.0" /><polygon fill="black" points="412.0,810.0" /><polygon fill="black" points="278.0,810.0" /><polygon fill="black" points="683.0,806.0" /><polygon fill="black" points="279.0,806.0 279.0,807.0" /><polygon fill="black" points="611.0,801.0" /><polygon fill="black" points="521.0,794.0 521.0,839.0" /><polygon fill="black" points="280.0,794.0 280.0,800.0" /><polygon fill="black" points="552.0,793.0" /><polygon fill="black" points="428.0,792.0" /><polygon fill="black" points="169.0,790.0 169.0,808.0" /><polygon fill="black" points="668.0,789.0" /><polygon fill="black" points="626.0,789.0" /><polygon fill="black" points="521.0,789.0 521.0,792.0" /><polygon fill="black" points="826.0,788.0" /><polygon fill="black" points="705.0,788.0 705.0,894.0 733.0,894.0 732.0,893.0 732.0,790.0 733.0,789.0 732.0,788.0" /><polygon fill="black" points="628.0,788.0" /><polygon fill="black" points="563.0,788.0" /><polygon fill="black" points="436.0,788.0" /><polygon fill="black" points="364.0,788.0" /><polygon fill="black" points="319.0,788.0" /><polygon fill="black" points="439.0,787.0" /><polygon fill="black" points="279.0,787.0" /><polygon fill="black" points="820.0,786.0" /><polygon fill="black" points="796.0,786.0 795.0,787.0 790.0,787.0 789.0,788.0 786.0,788.0 785.0,789.0 783.0,789.0 782.0,790.0 781.0,790.0 780.0,791.0 778.0,791.0 777.0,792.0 776.0,792.0 775.0,793.0 774.0,793.0 772.0,795.0 771.0,795.0 768.0,798.0 767.0,798.0 760.0,805.0 760.0,806.0 757.0,809.0 757.0,810.0 755.0,812.0 755.0,813.0 754.0,814.0 754.0,815.0 753.0,816.0 753.0,817.0 752.0,818.0 752.0,820.0 751.0,821.0 751.0,822.0 750.0,823.0 750.0,826.0 749.0,827.0 749.0,830.0 748.0,831.0 748.0,852.0 749.0,853.0 749.0,856.0 750.0,857.0 750.0,860.0 751.0,861.0 751.0,862.0 752.0,863.0 752.0,865.0 753.0,866.0 753.0,867.0 754.0,868.0 754.0,869.0 755.0,870.0 755.0,871.0 757.0,873.0 757.0,874.0 759.0,876.0 759.0,877.0 768.0,886.0 769.0,886.0 772.0,889.0 773.0,889.0 774.0,890.0 775.0,890.0 776.0,891.0 777.0,891.0 778.0,892.0 779.0,892.0 780.0,893.0 781.0,893.0 782.0,894.0 784.0,894.0 785.0,895.0 788.0,895.0 789.0,896.0 792.0,896.0 793.0,897.0 813.0,897.0 814.0,896.0 818.0,896.0 819.0,895.0 821.0,895.0 822.0,894.0 824.0,894.0 825.0,893.0 826.0,893.0 827.0,892.0 829.0,892.0 831.0,890.0 832.0,890.0 833.0,889.0 834.0,889.0 836.0,887.0 837.0,887.0 848.0,876.0 848.0,875.0 850.0,873.0 850.0,872.0 851.0,871.0 851.0,870.0 852.0,869.0 852.0,868.0 853.0,867.0 853.0,866.0 854.0,865.0 854.0,864.0 855.0,863.0 855.0,861.0 856.0,860.0 856.0,858.0 857.0,857.0 857.0,854.0 858.0,853.0 858.0,848.0 859.0,847.0 859.0,837.0 858.0,836.0 858.0,830.0 857.0,829.0 857.0,826.0 856.0,825.0 856.0,823.0 855.0,822.0 855.0,820.0 854.0,819.0 854.0,818.0 853.0,817.0 853.0,816.0 852.0,815.0 852.0,814.0 851.0,813.0 851.0,812.0 850.0,811.0 850.0,810.0 848.0,808.0 848.0,807.0 837.0,796.0 836.0,796.0 834.0,794.0 833.0,794.0 832.0,793.0 831.0,793.0 830.0,792.0 829.0,792.0 828.0,791.0 827.0,791.0 826.0,790.0 824.0,790.0 823.0,789.0 821.0,789.0 820.0,788.0 818.0,788.0 817.0,787.0 812.0,787.0 811.0,786.0" /><polygon fill="black" points="705.0,786.0 732.0,786.0" /><polygon fill="black" points="575.0,786.0 574.0,787.0 571.0,787.0 570.0,788.0 568.0,788.0 567.0,789.0 565.0,789.0 564.0,790.0 563.0,790.0 562.0,791.0 561.0,791.0 559.0,793.0 558.0,793.0 555.0,796.0 554.0,796.0 553.0,797.0 552.0,796.0 553.0,797.0 553.0,798.0 551.0,800.0 550.0,799.0 550.0,789.0 549.0,788.0 524.0,788.0 523.0,789.0 523.0,894.0 551.0,894.0 551.0,826.0 552.0,825.0 552.0,823.0 553.0,822.0 553.0,821.0 554.0,820.0 554.0,819.0 556.0,817.0 556.0,816.0 557.0,815.0 558.0,815.0 560.0,813.0 561.0,813.0 562.0,812.0 563.0,812.0 564.0,811.0 569.0,811.0 570.0,810.0 571.0,810.0 572.0,811.0 576.0,811.0 577.0,812.0 579.0,812.0 580.0,813.0 581.0,813.0 587.0,819.0 587.0,820.0 588.0,821.0 588.0,823.0 589.0,824.0 589.0,827.0 590.0,828.0 590.0,892.0 589.0,893.0 589.0,894.0 618.0,894.0 618.0,893.0 617.0,892.0 618.0,891.0 618.0,889.0 617.0,888.0 618.0,887.0 617.0,886.0 617.0,830.0 618.0,829.0 618.0,824.0 619.0,823.0 619.0,822.0 620.0,821.0 620.0,820.0 621.0,819.0 621.0,818.0 626.0,813.0 627.0,813.0 628.0,812.0 629.0,812.0 630.0,811.0 634.0,811.0 635.0,810.0 638.0,810.0 639.0,811.0 644.0,811.0 645.0,812.0 646.0,812.0 647.0,813.0 648.0,813.0 654.0,819.0 654.0,820.0 655.0,821.0 655.0,823.0 656.0,824.0 656.0,828.0 657.0,829.0 657.0,894.0 685.0,894.0 684.0,893.0 684.0,817.0 683.0,816.0 683.0,812.0 682.0,811.0 682.0,809.0 681.0,808.0 681.0,807.0 680.0,806.0 680.0,804.0 678.0,802.0 678.0,801.0 676.0,799.0 676.0,798.0 672.0,794.0 671.0,794.0 669.0,792.0 668.0,792.0 666.0,790.0 665.0,790.0 664.0,789.0 662.0,789.0 661.0,788.0 659.0,788.0 658.0,787.0 655.0,787.0 654.0,786.0 642.0,786.0 641.0,787.0 637.0,787.0 636.0,788.0 633.0,788.0 632.0,789.0 631.0,789.0 630.0,790.0 628.0,790.0 627.0,791.0 626.0,791.0 624.0,793.0 623.0,793.0 622.0,794.0 621.0,794.0 612.0,803.0 612.0,804.0 611.0,805.0 610.0,804.0 610.0,803.0 609.0,802.0 609.0,801.0 605.0,797.0 605.0,796.0 604.0,795.0 603.0,795.0 599.0,791.0 598.0,791.0 597.0,790.0 596.0,790.0 595.0,789.0 594.0,789.0 593.0,788.0 591.0,788.0 590.0,787.0 587.0,787.0 586.0,786.0" /><polygon fill="black" points="548.0,786.0 549.0,786.0" /><polygon fill="black" points="524.0,786.0 546.0,786.0" /><polygon fill="black" points="452.0,786.0 451.0,787.0 446.0,787.0 445.0,788.0 442.0,788.0 441.0,789.0 439.0,789.0 438.0,790.0 436.0,790.0 435.0,791.0 434.0,791.0 433.0,792.0 432.0,792.0 431.0,793.0 430.0,793.0 428.0,795.0 427.0,795.0 424.0,798.0 423.0,798.0 420.0,801.0 420.0,802.0 417.0,805.0 417.0,806.0 416.0,807.0 416.0,808.0 415.0,809.0 415.0,810.0 414.0,811.0 414.0,812.0 413.0,813.0 413.0,816.0 412.0,817.0 412.0,821.0 411.0,822.0 438.0,822.0 438.0,821.0 439.0,820.0 439.0,819.0 440.0,818.0 440.0,817.0 441.0,816.0 441.0,815.0 444.0,812.0 445.0,812.0 447.0,810.0 449.0,810.0 450.0,809.0 454.0,809.0 455.0,808.0 458.0,808.0 459.0,809.0 463.0,809.0 464.0,810.0 466.0,810.0 467.0,811.0 468.0,811.0 473.0,816.0 473.0,817.0 474.0,818.0 474.0,819.0 475.0,820.0 475.0,822.0 476.0,823.0 476.0,831.0 475.0,832.0 456.0,832.0 455.0,833.0 445.0,833.0 444.0,834.0 438.0,834.0 437.0,835.0 434.0,835.0 433.0,836.0 431.0,836.0 430.0,837.0 428.0,837.0 427.0,838.0 426.0,838.0 425.0,839.0 424.0,839.0 423.0,840.0 422.0,840.0 421.0,841.0 420.0,841.0 413.0,848.0 413.0,849.0 411.0,851.0 411.0,853.0 410.0,854.0 410.0,856.0 409.0,857.0 409.0,872.0 410.0,873.0 410.0,875.0 411.0,876.0 411.0,878.0 412.0,879.0 412.0,880.0 413.0,881.0 413.0,882.0 416.0,885.0 416.0,886.0 419.0,889.0 420.0,889.0 422.0,891.0 423.0,891.0 424.0,892.0 425.0,892.0 426.0,893.0 427.0,893.0 428.0,894.0 429.0,894.0 430.0,895.0 432.0,895.0 433.0,896.0 436.0,896.0 437.0,897.0 455.0,897.0 456.0,896.0 458.0,896.0 459.0,895.0 461.0,895.0 462.0,894.0 463.0,894.0 464.0,893.0 465.0,893.0 466.0,892.0 467.0,892.0 468.0,891.0 469.0,891.0 472.0,888.0 473.0,888.0 474.0,887.0 475.0,888.0 474.0,887.0 475.0,886.0 475.0,885.0 476.0,884.0 478.0,886.0 478.0,894.0 504.0,894.0 504.0,893.0 503.0,892.0 503.0,819.0 502.0,818.0 502.0,814.0 501.0,813.0 501.0,811.0 500.0,810.0 500.0,808.0 499.0,807.0 499.0,806.0 498.0,805.0 498.0,804.0 496.0,802.0 496.0,801.0 490.0,795.0 489.0,795.0 487.0,793.0 486.0,793.0 485.0,792.0 484.0,792.0 483.0,791.0 482.0,791.0 481.0,790.0 480.0,790.0 479.0,789.0 477.0,789.0 476.0,788.0 473.0,788.0 472.0,787.0 467.0,787.0 466.0,786.0" /><polygon fill="black" points="442.0,786.0" /><polygon fill="black" points="334.0,786.0 333.0,787.0 328.0,787.0 327.0,788.0 325.0,788.0 324.0,789.0 322.0,789.0 321.0,790.0 319.0,790.0 318.0,791.0 317.0,791.0 316.0,792.0 315.0,792.0 314.0,793.0 313.0,793.0 311.0,795.0 310.0,795.0 308.0,797.0 307.0,797.0 298.0,806.0 298.0,807.0 296.0,809.0 296.0,810.0 294.0,812.0 294.0,813.0 293.0,814.0 293.0,815.0 292.0,816.0 292.0,817.0 291.0,818.0 291.0,819.0 290.0,820.0 290.0,822.0 289.0,823.0 289.0,825.0 288.0,826.0 288.0,830.0 287.0,831.0 287.0,839.0 286.0,840.0 286.0,843.0 287.0,844.0 287.0,853.0 288.0,854.0 288.0,857.0 289.0,858.0 289.0,860.0 290.0,861.0 290.0,863.0 291.0,864.0 291.0,865.0 292.0,866.0 292.0,867.0 293.0,868.0 293.0,869.0 294.0,870.0 294.0,871.0 295.0,872.0 295.0,873.0 297.0,875.0 297.0,876.0 308.0,887.0 309.0,887.0 311.0,889.0 312.0,889.0 313.0,890.0 314.0,890.0 316.0,892.0 318.0,892.0 319.0,893.0 320.0,893.0 321.0,894.0 323.0,894.0 324.0,895.0 326.0,895.0 327.0,896.0 331.0,896.0 332.0,897.0 352.0,897.0 353.0,896.0 357.0,896.0 358.0,895.0 360.0,895.0 361.0,894.0 363.0,894.0 364.0,893.0 365.0,893.0 366.0,892.0 367.0,892.0 368.0,891.0 369.0,891.0 370.0,890.0 371.0,890.0 372.0,889.0 373.0,889.0 375.0,887.0 376.0,887.0 387.0,876.0 387.0,875.0 389.0,873.0 389.0,872.0 390.0,871.0 390.0,870.0 391.0,869.0 391.0,868.0 392.0,867.0 392.0,866.0 393.0,865.0 393.0,864.0 394.0,863.0 394.0,861.0 395.0,860.0 395.0,858.0 396.0,857.0 396.0,853.0 397.0,852.0 397.0,845.0 398.0,844.0 398.0,842.0 397.0,841.0 397.0,831.0 396.0,830.0 396.0,827.0 395.0,826.0 395.0,823.0 394.0,822.0 394.0,821.0 393.0,820.0 393.0,818.0 392.0,817.0 392.0,816.0 391.0,815.0 391.0,814.0 389.0,812.0 389.0,811.0 388.0,810.0 388.0,809.0 383.0,804.0 383.0,803.0 379.0,799.0 378.0,799.0 375.0,796.0 374.0,796.0 372.0,794.0 371.0,794.0 370.0,793.0 369.0,793.0 368.0,792.0 367.0,792.0 366.0,791.0 365.0,791.0 364.0,790.0 362.0,790.0 361.0,789.0 359.0,789.0 358.0,788.0 355.0,788.0 354.0,787.0 349.0,787.0 348.0,786.0" /><polygon fill="black" points="325.0,786.0" /><polygon fill="black" points="815.0,785.0 816.0,785.0" /><polygon fill="black" points="789.0,785.0 790.0,785.0" /><polygon fill="black" points="637.0,785.0" /><polygon fill="black" points="169.0,785.0 169.0,788.0" /><polygon fill="black" points="806.0,784.0 811.0,784.0" /><polygon fill="black" points="797.0,784.0" /><polygon fill="black" points="795.0,784.0" /><polygon fill="black" points="793.0,784.0" /><polygon fill="black" points="649.0,784.0 651.0,784.0" /><polygon fill="black" points="642.0,784.0 646.0,784.0" /><polygon fill="black" points="583.0,784.0 585.0,784.0" /><polygon fill="black" points="575.0,784.0 580.0,784.0" /><polygon fill="black" points="463.0,784.0 466.0,784.0" /><polygon fill="black" points="460.0,784.0 461.0,784.0" /><polygon fill="black" points="453.0,784.0" /><polygon fill="black" points="341.0,784.0 347.0,784.0" /><polygon fill="black" points="334.0,784.0 339.0,784.0" /><polygon fill="black" points="169.0,782.0" /><polygon fill="black" points="722.0,776.0" /><polygon fill="black" points="276.0,776.0" /><polygon fill="black" points="169.0,775.0 169.0,780.0" /><polygon fill="black" points="275.0,774.0" /><polygon fill="black" points="169.0,770.0 169.0,773.0" /><polygon fill="black" points="702.0,767.0" /><polygon fill="black" points="169.0,762.0 169.0,765.0" /><polygon fill="black" points="736.0,761.0 736.0,762.0" /><polygon fill="black" points="700.0,759.0" /><polygon fill="black" points="169.0,759.0 169.0,760.0" /><polygon fill="black" points="700.0,757.0" /><polygon fill="black" points="736.0,756.0 736.0,757.0" /><polygon fill="black" points="259.0,755.0" /><polygon fill="black" points="169.0,755.0" /><polygon fill="black" points="257.0,754.0" /><polygon fill="black" points="169.0,753.0" /><polygon fill="black" points="169.0,750.0 169.0,751.0" /><polygon fill="black" points="247.0,749.0" /><polygon fill="black" points="244.0,748.0" /><polygon fill="black" points="171.0,748.0 171.0,894.0 201.0,894.0 201.0,842.0 202.0,841.0 203.0,841.0 204.0,842.0 205.0,841.0 217.0,841.0 218.0,842.0 219.0,841.0 221.0,843.0 221.0,844.0 222.0,845.0 222.0,846.0 223.0,847.0 223.0,848.0 225.0,850.0 225.0,851.0 226.0,852.0 226.0,853.0 228.0,855.0 228.0,856.0 229.0,857.0 229.0,858.0 230.0,859.0 230.0,860.0 232.0,862.0 232.0,863.0 233.0,864.0 233.0,865.0 234.0,866.0 234.0,867.0 236.0,869.0 236.0,870.0 237.0,871.0 237.0,872.0 239.0,874.0 239.0,875.0 240.0,876.0 240.0,877.0 241.0,878.0 241.0,879.0 242.0,880.0 242.0,881.0 244.0,883.0 244.0,884.0 245.0,885.0 245.0,886.0 246.0,887.0 246.0,888.0 248.0,890.0 248.0,891.0 249.0,892.0 249.0,893.0 250.0,894.0 283.0,894.0 282.0,893.0 282.0,892.0 280.0,890.0 280.0,889.0 279.0,888.0 279.0,887.0 277.0,885.0 277.0,884.0 276.0,883.0 276.0,882.0 274.0,880.0 274.0,879.0 273.0,878.0 273.0,877.0 272.0,876.0 272.0,875.0 270.0,873.0 270.0,872.0 269.0,871.0 269.0,870.0 267.0,868.0 267.0,867.0 266.0,866.0 266.0,865.0 264.0,863.0 264.0,862.0 263.0,861.0 263.0,860.0 261.0,858.0 261.0,857.0 260.0,856.0 260.0,855.0 258.0,853.0 258.0,852.0 257.0,851.0 257.0,850.0 256.0,849.0 256.0,848.0 254.0,846.0 254.0,845.0 252.0,843.0 252.0,842.0 251.0,841.0 251.0,840.0 250.0,839.0 252.0,837.0 253.0,837.0 254.0,836.0 255.0,836.0 256.0,835.0 257.0,835.0 258.0,834.0 259.0,834.0 261.0,832.0 262.0,832.0 268.0,826.0 268.0,825.0 271.0,822.0 271.0,821.0 272.0,820.0 272.0,819.0 273.0,818.0 273.0,817.0 274.0,816.0 274.0,814.0 275.0,813.0 275.0,812.0 276.0,811.0 276.0,808.0 277.0,807.0 277.0,800.0 278.0,799.0 278.0,793.0 277.0,792.0 277.0,786.0 276.0,785.0 276.0,782.0 275.0,781.0 275.0,779.0 274.0,778.0 274.0,776.0 273.0,775.0 273.0,774.0 272.0,773.0 272.0,772.0 270.0,770.0 270.0,769.0 267.0,766.0 267.0,765.0 261.0,759.0 260.0,759.0 257.0,756.0 256.0,756.0 255.0,755.0 254.0,755.0 252.0,753.0 250.0,753.0 249.0,752.0 248.0,752.0 247.0,751.0 245.0,751.0 244.0,750.0 242.0,750.0 241.0,749.0 237.0,749.0 236.0,748.0" /><polygon fill="black" points="239.0,747.0 241.0,747.0" /><polygon fill="black" points="233.0,746.0 234.0,746.0" /><polygon fill="black" points="173.0,746.0" /><polygon fill="black" points="708.0,744.0" /><polygon fill="black" points="715.0,743.0 714.0,744.0 712.0,744.0 711.0,745.0 710.0,745.0 708.0,747.0 707.0,747.0 706.0,748.0 706.0,749.0 704.0,751.0 704.0,752.0 703.0,753.0 703.0,756.0 702.0,757.0 702.0,760.0 703.0,761.0 703.0,764.0 704.0,765.0 704.0,766.0 705.0,767.0 705.0,768.0 709.0,772.0 710.0,772.0 711.0,773.0 712.0,773.0 713.0,774.0 723.0,774.0 724.0,773.0 725.0,773.0 726.0,772.0 727.0,772.0 729.0,770.0 730.0,770.0 730.0,769.0 732.0,767.0 732.0,766.0 733.0,765.0 733.0,764.0 734.0,763.0 734.0,755.0 733.0,754.0 733.0,752.0 732.0,751.0 732.0,750.0 728.0,746.0 727.0,746.0 726.0,745.0 725.0,745.0 724.0,744.0 722.0,744.0 721.0,743.0" /><polygon fill="black" points="722.0,741.0" /><polygon fill="black" points="715.0,741.0 720.0,741.0" /><polygon fill="black" points="505.0,721.0" /><polygon fill="black" points="490.0,720.0" /><polygon fill="black" points="488.0,720.0" /><polygon fill="black" points="544.0,719.0" /><polygon fill="black" points="542.0,719.0" /><polygon fill="black" points="477.0,719.0 482.0,719.0" /><polygon fill="black" points="551.0,718.0 552.0,718.0" /><polygon fill="black" points="470.0,718.0" /><polygon fill="black" points="560.0,717.0" /><polygon fill="black" points="558.0,717.0" /><polygon fill="black" points="564.0,716.0" /><polygon fill="black" points="459.0,716.0" /><polygon fill="black" points="453.0,715.0" /><polygon fill="black" points="574.0,714.0 575.0,714.0" /><polygon fill="black" points="449.0,714.0" /><polygon fill="black" points="437.0,711.0" /><polygon fill="black" points="594.0,709.0" /><polygon fill="black" points="430.0,709.0" /><polygon fill="black" points="427.0,708.0" /><polygon fill="black" points="600.0,707.0" /><polygon fill="black" points="424.0,707.0" /><polygon fill="black" points="622.0,699.0" /><polygon fill="black" points="636.0,693.0" /><polygon fill="black" points="369.0,683.0" /><polygon fill="black" points="684.0,664.0" /><polygon fill="black" points="335.0,661.0" /><polygon fill="black" points="300.0,630.0" /><polygon fill="black" points="272.0,597.0" /><polygon fill="black" points="762.0,581.0" /><polygon fill="black" points="778.0,553.0" /><polygon fill="black" points="781.0,547.0" /><polygon fill="black" points="240.0,542.0" /><polygon fill="black" points="766.0,530.0" /><polygon fill="black" points="765.0,528.0" /><polygon fill="black" points="258.0,527.0 258.0,528.0" /><polygon fill="black" points="765.0,526.0" /><polygon fill="black" points="768.0,525.0" /><polygon fill="black" points="258.0,524.0" /><polygon fill="black" points="232.0,523.0" /><polygon fill="black" points="231.0,520.0" /><polygon fill="black" points="259.0,518.0 259.0,519.0" /><polygon fill="black" points="772.0,514.0" /><polygon fill="black" points="763.0,512.0" /><polygon fill="black" points="260.0,510.0" /><polygon fill="black" points="796.0,509.0" /><polygon fill="black" points="249.0,508.0" /><polygon fill="black" points="261.0,507.0" /><polygon fill="black" points="762.0,506.0" /><polygon fill="black" points="761.0,501.0" /><polygon fill="black" points="225.0,501.0" /><polygon fill="black" points="799.0,498.0" /><polygon fill="black" points="760.0,497.0" /><polygon fill="black" points="245.0,495.0" /><polygon fill="black" points="264.0,493.0" /><polygon fill="black" points="779.0,492.0" /><polygon fill="black" points="244.0,492.0" /><polygon fill="black" points="801.0,491.0" /><polygon fill="black" points="780.0,490.0" /><polygon fill="black" points="243.0,488.0" /><polygon fill="black" points="802.0,487.0" /><polygon fill="black" points="757.0,486.0" /><polygon fill="black" points="781.0,485.0 781.0,486.0" /><polygon fill="black" points="267.0,483.0" /><polygon fill="black" points="241.0,480.0" /><polygon fill="black" points="219.0,477.0" /><polygon fill="black" points="269.0,476.0" /><polygon fill="black" points="805.0,473.0" /><polygon fill="black" points="753.0,473.0 753.0,474.0" /><polygon fill="black" points="218.0,472.0 218.0,473.0" /><polygon fill="black" points="271.0,471.0" /><polygon fill="black" points="785.0,467.0 785.0,468.0" /><polygon fill="black" points="217.0,466.0 217.0,467.0" /><polygon fill="black" points="238.0,464.0" /><polygon fill="black" points="786.0,462.0" /><polygon fill="black" points="275.0,461.0" /><polygon fill="black" points="216.0,459.0" /><polygon fill="black" points="276.0,458.0" /><polygon fill="black" points="808.0,453.0 808.0,454.0" /><polygon fill="black" points="787.0,453.0 787.0,454.0" /><polygon fill="black" points="215.0,449.0 215.0,454.0" /><polygon fill="black" points="742.0,448.0" /><polygon fill="black" points="280.0,448.0" /><polygon fill="black" points="809.0,446.0" /><polygon fill="black" points="788.0,445.0 788.0,446.0" /><polygon fill="black" points="282.0,445.0" /><polygon fill="black" points="283.0,443.0" /><polygon fill="black" points="214.0,442.0" /><polygon fill="black" points="285.0,440.0" /><polygon fill="black" points="235.0,440.0 235.0,442.0" /><polygon fill="black" points="810.0,433.0 810.0,434.0" /><polygon fill="black" points="789.0,432.0 789.0,437.0" /><polygon fill="black" points="810.0,428.0 810.0,431.0" /><polygon fill="black" points="234.0,427.0" /><polygon fill="black" points="213.0,427.0" /><polygon fill="black" points="728.0,424.0" /><polygon fill="black" points="234.0,424.0 234.0,425.0" /><polygon fill="black" points="234.0,418.0" /><polygon fill="black" points="234.0,416.0" /><polygon fill="black" points="234.0,413.0 234.0,414.0" /><polygon fill="black" points="213.0,408.0 213.0,423.0" /><polygon fill="black" points="234.0,407.0 234.0,411.0" /><polygon fill="black" points="714.0,405.0" /><polygon fill="black" points="501.0,405.0" /><polygon fill="black" points="234.0,405.0" /><polygon fill="black" points="234.0,403.0" /><polygon fill="black" points="810.0,402.0" /><polygon fill="black" points="789.0,398.0" /><polygon fill="black" points="810.0,395.0 810.0,396.0" /><polygon fill="black" points="789.0,394.0 789.0,396.0" /><polygon fill="black" points="235.0,392.0 235.0,393.0" /><polygon fill="black" points="214.0,391.0 214.0,397.0" /><polygon fill="black" points="235.0,390.0" /><polygon fill="black" points="737.0,386.0" /><polygon fill="black" points="809.0,385.0 809.0,387.0" /><polygon fill="black" points="788.0,383.0 788.0,388.0" /><polygon fill="black" points="236.0,382.0" /><polygon fill="black" points="215.0,381.0 215.0,384.0" /><polygon fill="black" points="808.0,377.0 808.0,378.0" /><polygon fill="black" points="237.0,373.0 237.0,374.0" /><polygon fill="black" points="216.0,372.0 216.0,373.0" /><polygon fill="black" points="343.0,370.0" /><polygon fill="black" points="807.0,369.0 807.0,370.0" /><polygon fill="black" points="786.0,369.0 786.0,371.0" /><polygon fill="black" points="755.0,367.0" /><polygon fill="black" points="217.0,367.0 217.0,368.0" /><polygon fill="black" points="806.0,363.0" /><polygon fill="black" points="538.0,363.0" /><polygon fill="black" points="784.0,358.0" /><polygon fill="black" points="805.0,357.0 805.0,358.0" /><polygon fill="black" points="240.0,356.0 240.0,357.0" /><polygon fill="black" points="219.0,356.0" /><polygon fill="black" points="783.0,355.0" /><polygon fill="black" points="365.0,354.0" /><polygon fill="black" points="804.0,352.0 804.0,354.0" /><polygon fill="black" points="736.0,350.0 735.0,351.0 735.0,353.0 734.0,354.0 734.0,355.0 732.0,357.0 732.0,358.0 729.0,361.0 728.0,361.0 726.0,363.0 725.0,363.0 724.0,364.0 723.0,364.0 721.0,366.0 720.0,366.0 720.0,368.0 721.0,368.0 722.0,369.0 723.0,369.0 724.0,370.0 725.0,370.0 727.0,372.0 728.0,372.0 732.0,376.0 732.0,377.0 733.0,378.0 733.0,379.0 734.0,380.0 734.0,381.0 735.0,382.0 735.0,383.0 736.0,384.0 737.0,384.0 738.0,383.0 738.0,382.0 739.0,381.0 739.0,380.0 740.0,379.0 740.0,378.0 741.0,377.0 741.0,376.0 746.0,371.0 747.0,371.0 748.0,370.0 749.0,370.0 750.0,369.0 751.0,369.0 753.0,367.0 753.0,366.0 752.0,365.0 751.0,365.0 750.0,364.0 749.0,364.0 748.0,363.0 747.0,363.0 745.0,361.0 744.0,361.0 741.0,358.0 741.0,357.0 740.0,356.0 740.0,355.0 739.0,354.0 739.0,353.0 738.0,352.0 738.0,351.0 737.0,350.0" /><polygon fill="black" points="220.0,350.0 220.0,351.0" /><polygon fill="black" points="803.0,349.0" /><polygon fill="black" points="782.0,349.0 782.0,350.0" /><polygon fill="black" points="650.0,349.0" /><polygon fill="black" points="221.0,346.0" /><polygon fill="black" points="638.0,342.0" /><polygon fill="black" points="470.0,342.0" /><polygon fill="black" points="222.0,341.0" /><polygon fill="black" points="634.0,340.0" /><polygon fill="black" points="244.0,340.0" /><polygon fill="black" points="245.0,337.0 245.0,338.0" /><polygon fill="black" points="626.0,336.0" /><polygon fill="black" points="397.0,336.0" /><polygon fill="black" points="777.0,332.0" /><polygon fill="black" points="614.0,331.0" /><polygon fill="black" points="577.0,329.0" /><polygon fill="black" points="413.0,329.0" /><polygon fill="black" points="776.0,328.0" /><polygon fill="black" points="607.0,328.0" /><polygon fill="black" points="460.0,327.0" /><polygon fill="black" points="445.0,327.0" /><polygon fill="black" points="418.0,327.0 419.0,327.0" /><polygon fill="black" points="226.0,327.0" /><polygon fill="black" points="421.0,326.0 422.0,326.0" /><polygon fill="black" points="294.0,326.0 292.0,328.0 292.0,329.0 291.0,330.0 291.0,331.0 289.0,333.0 289.0,334.0 285.0,338.0 284.0,338.0 282.0,340.0 281.0,340.0 280.0,341.0 279.0,341.0 276.0,344.0 278.0,346.0 279.0,346.0 280.0,347.0 281.0,347.0 282.0,348.0 283.0,348.0 285.0,350.0 286.0,350.0 287.0,351.0 287.0,352.0 290.0,355.0 290.0,356.0 291.0,357.0 291.0,359.0 292.0,360.0 292.0,361.0 293.0,362.0 294.0,362.0 296.0,360.0 296.0,358.0 297.0,357.0 297.0,356.0 298.0,355.0 298.0,354.0 303.0,349.0 304.0,349.0 306.0,347.0 307.0,347.0 308.0,346.0 309.0,346.0 311.0,344.0 309.0,342.0 308.0,342.0 307.0,341.0 306.0,341.0 304.0,339.0 303.0,339.0 298.0,334.0 298.0,333.0 297.0,332.0 297.0,331.0 296.0,330.0 296.0,329.0 295.0,328.0 295.0,327.0" /><polygon fill="black" points="797.0,325.0 797.0,326.0" /><polygon fill="black" points="775.0,325.0" /><polygon fill="black" points="425.0,325.0" /><polygon fill="black" points="595.0,324.0 596.0,324.0" /><polygon fill="black" points="458.0,324.0" /><polygon fill="black" points="430.0,323.0" /><polygon fill="black" points="439.0,320.0" /><polygon fill="black" points="773.0,319.0" /><polygon fill="black" points="229.0,318.0" /><polygon fill="black" points="252.0,316.0" /><polygon fill="black" points="771.0,314.0" /><polygon fill="black" points="793.0,313.0" /><polygon fill="black" points="792.0,311.0" /><polygon fill="black" points="232.0,309.0 232.0,310.0" /><polygon fill="black" points="448.0,308.0" /><polygon fill="black" points="233.0,307.0" /><polygon fill="black" points="767.0,304.0" /><polygon fill="black" points="444.0,302.0" /><polygon fill="black" points="235.0,302.0" /><polygon fill="black" points="788.0,300.0" /><polygon fill="black" points="765.0,300.0" /><polygon fill="black" points="259.0,299.0" /><polygon fill="black" points="683.0,297.0" /><polygon fill="black" points="786.0,296.0" /><polygon fill="black" points="762.0,293.0" /><polygon fill="black" points="240.0,291.0" /><polygon fill="black" points="265.0,287.0" /><polygon fill="black" points="266.0,285.0" /><polygon fill="black" points="267.0,283.0" /><polygon fill="black" points="245.0,280.0" /><polygon fill="black" points="773.0,269.0" /><polygon fill="black" points="251.0,269.0" /><polygon fill="black" points="424.0,268.0" /><polygon fill="black" points="253.0,265.0" /><polygon fill="black" points="770.0,264.0" /><polygon fill="black" points="421.0,262.0" /><polygon fill="black" points="323.0,261.0" /><polygon fill="black" points="672.0,256.0" /><polygon fill="black" points="416.0,253.0 416.0,254.0" /><polygon fill="black" points="608.0,251.0" /><polygon fill="black" points="677.0,250.0 677.0,251.0 676.0,252.0 676.0,253.0 675.0,254.0 675.0,255.0 674.0,256.0 674.0,258.0 673.0,259.0 673.0,260.0 670.0,263.0 670.0,264.0 667.0,267.0 666.0,267.0 664.0,269.0 663.0,269.0 661.0,271.0 660.0,271.0 659.0,272.0 658.0,272.0 657.0,273.0 656.0,273.0 655.0,274.0 654.0,274.0 654.0,278.0 655.0,278.0 656.0,279.0 658.0,279.0 659.0,280.0 660.0,280.0 661.0,281.0 662.0,281.0 663.0,282.0 664.0,282.0 672.0,290.0 672.0,291.0 673.0,292.0 673.0,293.0 674.0,294.0 674.0,295.0 675.0,296.0 675.0,298.0 676.0,299.0 676.0,300.0 677.0,301.0 679.0,301.0 680.0,300.0 680.0,299.0 681.0,298.0 681.0,295.0 682.0,294.0 682.0,293.0 683.0,292.0 683.0,291.0 684.0,290.0 684.0,289.0 690.0,283.0 691.0,283.0 693.0,281.0 694.0,281.0 695.0,280.0 696.0,280.0 697.0,279.0 698.0,279.0 699.0,278.0 700.0,278.0 701.0,277.0 701.0,275.0 699.0,273.0 698.0,273.0 697.0,272.0 696.0,272.0 695.0,271.0 694.0,271.0 693.0,270.0 692.0,270.0 683.0,261.0 683.0,260.0 682.0,259.0 682.0,258.0 681.0,257.0 681.0,255.0 680.0,254.0 680.0,252.0 678.0,250.0" /><polygon fill="black" points="735.0,248.0" /><polygon fill="black" points="412.0,246.0" /><polygon fill="black" points="758.0,245.0" /><polygon fill="black" points="268.0,242.0" /><polygon fill="black" points="348.0,237.0 347.0,238.0 347.0,239.0 346.0,240.0 346.0,241.0 345.0,242.0 345.0,244.0 343.0,246.0 343.0,247.0 335.0,255.0 334.0,255.0 333.0,256.0 332.0,256.0 331.0,257.0 330.0,257.0 329.0,258.0 328.0,258.0 325.0,261.0 325.0,262.0 326.0,263.0 327.0,263.0 328.0,264.0 329.0,264.0 330.0,265.0 332.0,265.0 333.0,266.0 334.0,266.0 336.0,268.0 337.0,268.0 342.0,273.0 342.0,274.0 344.0,276.0 344.0,277.0 345.0,278.0 345.0,280.0 346.0,281.0 346.0,282.0 347.0,283.0 347.0,284.0 348.0,285.0 350.0,285.0 350.0,284.0 351.0,283.0 351.0,281.0 352.0,280.0 352.0,278.0 353.0,277.0 353.0,276.0 354.0,275.0 354.0,274.0 361.0,267.0 362.0,267.0 364.0,265.0 365.0,265.0 366.0,264.0 367.0,264.0 368.0,263.0 369.0,263.0 370.0,262.0 371.0,262.0 371.0,260.0 369.0,258.0 368.0,258.0 367.0,257.0 366.0,257.0 365.0,256.0 364.0,256.0 363.0,255.0 362.0,255.0 359.0,252.0 358.0,252.0 356.0,250.0 356.0,249.0 354.0,247.0 354.0,246.0 352.0,244.0 352.0,242.0 351.0,241.0 351.0,240.0 350.0,239.0 350.0,238.0 349.0,237.0" /><polygon fill="black" points="272.0,237.0" /><polygon fill="black" points="616.0,231.0" /><polygon fill="black" points="304.0,230.0" /><polygon fill="black" points="617.0,228.0" /><polygon fill="black" points="405.0,226.0" /><polygon fill="black" points="618.0,223.0 618.0,224.0" /><polygon fill="black" points="404.0,220.0 404.0,222.0" /><polygon fill="black" points="619.0,218.0 619.0,219.0" /><polygon fill="black" points="289.0,216.0" /><polygon fill="black" points="403.0,215.0 403.0,217.0" /><polygon fill="black" points="620.0,211.0 620.0,212.0" /><polygon fill="black" points="620.0,204.0 620.0,208.0" /><polygon fill="black" points="402.0,203.0" /><polygon fill="black" points="333.0,202.0" /><polygon fill="black" points="620.0,200.0 620.0,202.0" /><polygon fill="black" points="620.0,198.0" /><polygon fill="black" points="403.0,194.0" /><polygon fill="black" points="311.0,194.0" /><polygon fill="black" points="619.0,192.0" /><polygon fill="black" points="404.0,186.0" /><polygon fill="black" points="405.0,181.0 405.0,182.0" /><polygon fill="black" points="329.0,179.0" /><polygon fill="black" points="408.0,171.0" /><polygon fill="black" points="638.0,168.0" /><polygon fill="black" points="394.0,164.0" /><polygon fill="black" points="352.0,163.0" /><polygon fill="black" points="668.0,161.0" /><polygon fill="black" points="402.0,157.0" /><polygon fill="black" points="362.0,157.0" /><polygon fill="black" points="659.0,156.0" /><polygon fill="black" points="620.0,155.0" /><polygon fill="black" points="368.0,154.0" /><polygon fill="black" points="417.0,152.0" /><polygon fill="black" points="644.0,148.0" /><polygon fill="black" points="379.0,148.0" /><polygon fill="black" points="638.0,145.0" /><polygon fill="black" points="410.0,141.0" /><polygon fill="black" points="395.0,141.0" /><polygon fill="black" points="612.0,137.0 612.0,138.0 613.0,138.0 614.0,139.0 614.0,140.0 615.0,141.0 615.0,142.0 617.0,144.0 617.0,145.0 619.0,147.0 619.0,148.0 620.0,149.0 620.0,150.0 621.0,151.0 621.0,152.0 622.0,153.0 622.0,155.0 623.0,156.0 623.0,158.0 625.0,160.0 626.0,160.0 627.0,161.0 628.0,161.0 629.0,162.0 631.0,162.0 632.0,163.0 633.0,163.0 634.0,164.0 635.0,164.0 636.0,165.0 637.0,165.0 638.0,166.0 639.0,166.0 640.0,167.0 641.0,167.0 642.0,168.0 643.0,168.0 644.0,169.0 645.0,169.0 646.0,170.0 647.0,170.0 649.0,172.0 650.0,172.0 651.0,173.0 652.0,173.0 653.0,174.0 654.0,174.0 655.0,175.0 656.0,175.0 658.0,177.0 659.0,177.0 660.0,178.0 661.0,178.0 663.0,180.0 664.0,180.0 666.0,182.0 667.0,182.0 669.0,184.0 670.0,184.0 671.0,185.0 672.0,185.0 675.0,188.0 676.0,188.0 678.0,190.0 679.0,190.0 682.0,193.0 683.0,193.0 686.0,196.0 687.0,196.0 692.0,201.0 693.0,201.0 698.0,206.0 699.0,206.0 724.0,231.0 724.0,232.0 729.0,237.0 729.0,238.0 733.0,242.0 733.0,243.0 737.0,247.0 737.0,248.0 739.0,250.0 739.0,251.0 742.0,254.0 742.0,255.0 744.0,257.0 744.0,258.0 746.0,260.0 746.0,261.0 748.0,263.0 748.0,264.0 749.0,265.0 749.0,266.0 751.0,268.0 751.0,269.0 753.0,271.0 753.0,272.0 754.0,273.0 754.0,274.0 755.0,275.0 755.0,276.0 757.0,278.0 757.0,279.0 758.0,280.0 758.0,281.0 759.0,282.0 759.0,283.0 760.0,284.0 760.0,285.0 761.0,286.0 761.0,287.0 762.0,288.0 762.0,289.0 763.0,290.0 763.0,291.0 764.0,292.0 764.0,293.0 765.0,294.0 765.0,295.0 766.0,296.0 766.0,297.0 767.0,298.0 767.0,299.0 768.0,300.0 768.0,302.0 769.0,303.0 769.0,304.0 770.0,305.0 770.0,306.0 771.0,307.0 771.0,309.0 772.0,310.0 772.0,311.0 773.0,312.0 773.0,314.0 774.0,315.0 774.0,317.0 775.0,318.0 775.0,319.0 776.0,320.0 776.0,322.0 777.0,323.0 777.0,325.0 778.0,326.0 778.0,328.0 779.0,329.0 779.0,331.0 780.0,332.0 780.0,335.0 781.0,336.0 781.0,338.0 782.0,339.0 782.0,342.0 783.0,343.0 783.0,346.0 784.0,347.0 784.0,350.0 785.0,351.0 785.0,355.0 786.0,356.0 786.0,360.0 787.0,361.0 787.0,365.0 788.0,366.0 788.0,371.0 789.0,372.0 789.0,378.0 790.0,379.0 790.0,387.0 791.0,388.0 791.0,400.0 792.0,401.0 792.0,432.0 791.0,433.0 791.0,444.0 790.0,445.0 790.0,453.0 789.0,454.0 789.0,460.0 788.0,461.0 788.0,466.0 787.0,467.0 787.0,471.0 786.0,472.0 786.0,476.0 785.0,477.0 785.0,480.0 784.0,481.0 784.0,484.0 783.0,485.0 783.0,488.0 782.0,489.0 782.0,492.0 781.0,493.0 781.0,495.0 780.0,496.0 780.0,499.0 779.0,500.0 779.0,502.0 778.0,503.0 778.0,505.0 777.0,506.0 777.0,508.0 776.0,509.0 776.0,511.0 775.0,512.0 775.0,514.0 774.0,515.0 774.0,516.0 773.0,517.0 773.0,519.0 772.0,520.0 772.0,521.0 771.0,522.0 771.0,524.0 770.0,525.0 770.0,526.0 769.0,527.0 769.0,529.0 768.0,530.0 768.0,531.0 767.0,532.0 767.0,534.0 766.0,535.0 766.0,537.0 765.0,538.0 764.0,537.0 764.0,535.0 763.0,534.0 763.0,524.0 762.0,523.0 762.0,517.0 761.0,516.0 761.0,510.0 760.0,509.0 760.0,506.0 759.0,505.0 759.0,501.0 758.0,500.0 758.0,497.0 757.0,496.0 757.0,493.0 756.0,492.0 756.0,489.0 755.0,488.0 755.0,486.0 754.0,485.0 754.0,482.0 753.0,481.0 753.0,479.0 752.0,478.0 752.0,476.0 751.0,475.0 751.0,474.0 750.0,473.0 750.0,471.0 749.0,470.0 749.0,468.0 748.0,467.0 748.0,466.0 747.0,465.0 747.0,463.0 746.0,462.0 746.0,461.0 745.0,460.0 745.0,459.0 744.0,458.0 744.0,456.0 743.0,455.0 743.0,454.0 742.0,453.0 742.0,452.0 741.0,451.0 741.0,450.0 740.0,449.0 740.0,448.0 739.0,447.0 739.0,446.0 738.0,445.0 738.0,444.0 737.0,443.0 737.0,442.0 735.0,440.0 735.0,439.0 734.0,438.0 734.0,437.0 733.0,436.0 733.0,435.0 731.0,433.0 731.0,432.0 730.0,431.0 730.0,430.0 728.0,428.0 728.0,427.0 726.0,425.0 726.0,424.0 724.0,422.0 724.0,421.0 722.0,419.0 722.0,418.0 719.0,415.0 719.0,414.0 716.0,411.0 716.0,410.0 712.0,406.0 712.0,405.0 707.0,400.0 707.0,399.0 685.0,377.0 684.0,377.0 678.0,371.0 677.0,371.0 673.0,367.0 672.0,367.0 669.0,364.0 668.0,364.0 665.0,361.0 664.0,361.0 662.0,359.0 661.0,359.0 659.0,357.0 658.0,357.0 656.0,355.0 655.0,355.0 653.0,353.0 652.0,353.0 650.0,351.0 649.0,351.0 648.0,350.0 647.0,350.0 646.0,349.0 645.0,349.0 643.0,347.0 642.0,347.0 641.0,346.0 640.0,346.0 639.0,345.0 638.0,345.0 637.0,344.0 636.0,344.0 634.0,342.0 632.0,342.0 631.0,341.0 630.0,341.0 628.0,339.0 626.0,339.0 625.0,338.0 624.0,338.0 623.0,337.0 622.0,337.0 621.0,336.0 620.0,336.0 619.0,335.0 618.0,335.0 617.0,334.0 615.0,334.0 614.0,333.0 613.0,333.0 612.0,332.0 610.0,332.0 609.0,331.0 608.0,331.0 607.0,330.0 605.0,330.0 604.0,329.0 602.0,329.0 601.0,328.0 599.0,328.0 598.0,327.0 596.0,327.0 595.0,326.0 593.0,326.0 592.0,325.0 590.0,325.0 589.0,324.0 587.0,324.0 586.0,323.0 583.0,323.0 582.0,324.0 582.0,325.0 580.0,327.0 580.0,328.0 579.0,329.0 579.0,330.0 577.0,332.0 577.0,333.0 575.0,335.0 575.0,336.0 573.0,338.0 573.0,339.0 571.0,341.0 571.0,342.0 570.0,343.0 570.0,344.0 568.0,346.0 568.0,347.0 566.0,349.0 566.0,350.0 564.0,352.0 564.0,353.0 562.0,355.0 562.0,356.0 559.0,359.0 559.0,360.0 557.0,362.0 557.0,363.0 555.0,365.0 555.0,366.0 553.0,368.0 553.0,369.0 550.0,372.0 550.0,373.0 548.0,375.0 548.0,376.0 545.0,379.0 545.0,380.0 542.0,383.0 542.0,384.0 539.0,387.0 539.0,388.0 536.0,391.0 536.0,392.0 532.0,396.0 532.0,397.0 526.0,403.0 526.0,404.0 520.0,410.0 519.0,410.0 517.0,412.0 515.0,412.0 514.0,413.0 509.0,413.0 508.0,412.0 507.0,412.0 506.0,411.0 505.0,411.0 503.0,409.0 502.0,409.0 498.0,405.0 498.0,404.0 493.0,399.0 493.0,398.0 489.0,394.0 489.0,393.0 485.0,389.0 485.0,388.0 482.0,385.0 482.0,384.0 479.0,381.0 479.0,380.0 476.0,377.0 476.0,376.0 474.0,374.0 474.0,373.0 471.0,370.0 471.0,369.0 468.0,366.0 468.0,365.0 466.0,363.0 466.0,362.0 464.0,360.0 464.0,359.0 462.0,357.0 462.0,356.0 459.0,353.0 459.0,352.0 457.0,350.0 457.0,349.0 455.0,347.0 455.0,346.0 454.0,345.0 454.0,344.0 451.0,341.0 451.0,340.0 450.0,339.0 450.0,338.0 448.0,336.0 448.0,335.0 446.0,333.0 446.0,332.0 444.0,330.0 444.0,329.0 443.0,328.0 443.0,327.0 441.0,325.0 441.0,324.0 440.0,323.0 437.0,323.0 436.0,324.0 434.0,324.0 433.0,325.0 430.0,325.0 429.0,326.0 427.0,326.0 426.0,327.0 424.0,327.0 423.0,328.0 421.0,328.0 420.0,329.0 419.0,329.0 418.0,330.0 416.0,330.0 415.0,331.0 413.0,331.0 412.0,332.0 411.0,332.0 410.0,333.0 408.0,333.0 407.0,334.0 406.0,334.0 405.0,335.0 404.0,335.0 403.0,336.0 402.0,336.0 401.0,337.0 399.0,337.0 398.0,338.0 397.0,338.0 396.0,339.0 395.0,339.0 394.0,340.0 393.0,340.0 392.0,341.0 391.0,341.0 390.0,342.0 389.0,342.0 388.0,343.0 387.0,343.0 386.0,344.0 385.0,344.0 384.0,345.0 383.0,345.0 381.0,347.0 380.0,347.0 379.0,348.0 378.0,348.0 377.0,349.0 376.0,349.0 374.0,351.0 373.0,351.0 372.0,352.0 371.0,352.0 369.0,354.0 368.0,354.0 366.0,356.0 365.0,356.0 363.0,358.0 362.0,358.0 360.0,360.0 359.0,360.0 357.0,362.0 356.0,362.0 353.0,365.0 352.0,365.0 348.0,369.0 347.0,369.0 343.0,373.0 342.0,373.0 333.0,382.0 332.0,382.0 321.0,393.0 321.0,394.0 313.0,402.0 313.0,403.0 309.0,407.0 309.0,408.0 305.0,412.0 305.0,413.0 302.0,416.0 302.0,417.0 300.0,419.0 300.0,420.0 298.0,422.0 298.0,423.0 296.0,425.0 296.0,426.0 294.0,428.0 294.0,429.0 292.0,431.0 292.0,432.0 291.0,433.0 291.0,434.0 290.0,435.0 290.0,436.0 288.0,438.0 288.0,439.0 287.0,440.0 287.0,441.0 286.0,442.0 286.0,443.0 285.0,444.0 285.0,445.0 284.0,446.0 284.0,447.0 283.0,448.0 283.0,449.0 282.0,450.0 282.0,451.0 281.0,452.0 281.0,453.0 280.0,454.0 280.0,455.0 279.0,456.0 279.0,457.0 278.0,458.0 278.0,460.0 277.0,461.0 277.0,462.0 276.0,463.0 276.0,465.0 275.0,466.0 275.0,467.0 274.0,468.0 274.0,470.0 273.0,471.0 273.0,473.0 272.0,474.0 272.0,476.0 271.0,477.0 271.0,478.0 270.0,479.0 270.0,482.0 269.0,483.0 269.0,485.0 268.0,486.0 268.0,488.0 267.0,489.0 267.0,492.0 266.0,493.0 266.0,496.0 265.0,497.0 265.0,501.0 264.0,502.0 264.0,505.0 263.0,506.0 263.0,510.0 262.0,511.0 262.0,517.0 261.0,518.0 261.0,524.0 260.0,525.0 260.0,538.0 259.0,539.0 258.0,538.0 258.0,537.0 257.0,536.0 257.0,534.0 256.0,533.0 256.0,532.0 255.0,531.0 255.0,530.0 254.0,529.0 254.0,527.0 253.0,526.0 253.0,524.0 252.0,523.0 252.0,522.0 251.0,521.0 251.0,519.0 250.0,518.0 250.0,517.0 249.0,516.0 249.0,514.0 248.0,513.0 248.0,511.0 247.0,510.0 247.0,508.0 246.0,507.0 246.0,505.0 245.0,504.0 245.0,502.0 244.0,501.0 244.0,499.0 243.0,498.0 243.0,495.0 242.0,494.0 242.0,492.0 241.0,491.0 241.0,488.0 240.0,487.0 240.0,484.0 239.0,483.0 239.0,480.0 238.0,479.0 238.0,475.0 237.0,474.0 237.0,470.0 236.0,469.0 236.0,465.0 235.0,464.0 235.0,458.0 234.0,457.0 234.0,450.0 233.0,449.0 233.0,439.0 232.0,438.0 232.0,394.0 233.0,393.0 233.0,383.0 234.0,382.0 234.0,376.0 235.0,375.0 235.0,369.0 236.0,368.0 236.0,364.0 237.0,363.0 237.0,358.0 238.0,357.0 238.0,354.0 239.0,353.0 239.0,349.0 240.0,348.0 240.0,345.0 241.0,344.0 241.0,342.0 242.0,341.0 242.0,338.0 243.0,337.0 243.0,335.0 244.0,334.0 244.0,331.0 245.0,330.0 245.0,328.0 246.0,327.0 246.0,325.0 247.0,324.0 247.0,322.0 248.0,321.0 248.0,320.0 249.0,319.0 249.0,317.0 250.0,316.0 250.0,314.0 251.0,313.0 251.0,312.0 252.0,311.0 252.0,309.0 253.0,308.0 253.0,307.0 254.0,306.0 254.0,304.0 255.0,303.0 255.0,302.0 256.0,301.0 256.0,300.0 257.0,299.0 257.0,298.0 258.0,297.0 258.0,295.0 259.0,294.0 259.0,293.0 260.0,292.0 260.0,291.0 261.0,290.0 261.0,289.0 262.0,288.0 262.0,287.0 263.0,286.0 263.0,285.0 265.0,283.0 265.0,282.0 266.0,281.0 266.0,280.0 267.0,279.0 267.0,278.0 268.0,277.0 268.0,276.0 270.0,274.0 270.0,273.0 271.0,272.0 271.0,271.0 273.0,269.0 273.0,268.0 274.0,267.0 274.0,266.0 276.0,264.0 276.0,263.0 278.0,261.0 278.0,260.0 280.0,258.0 280.0,257.0 282.0,255.0 282.0,254.0 284.0,252.0 284.0,251.0 287.0,248.0 287.0,247.0 291.0,243.0 291.0,242.0 294.0,239.0 294.0,238.0 300.0,232.0 300.0,231.0 327.0,204.0 328.0,204.0 333.0,199.0 334.0,199.0 338.0,195.0 339.0,195.0 342.0,192.0 343.0,192.0 346.0,189.0 347.0,189.0 349.0,187.0 350.0,187.0 352.0,185.0 353.0,185.0 355.0,183.0 356.0,183.0 358.0,181.0 359.0,181.0 361.0,179.0 362.0,179.0 364.0,177.0 365.0,177.0 366.0,176.0 367.0,176.0 369.0,174.0 370.0,174.0 371.0,173.0 372.0,173.0 373.0,172.0 374.0,172.0 376.0,170.0 377.0,170.0 378.0,169.0 379.0,169.0 380.0,168.0 381.0,168.0 382.0,167.0 383.0,167.0 384.0,166.0 385.0,166.0 386.0,165.0 387.0,165.0 388.0,164.0 389.0,164.0 390.0,163.0 392.0,163.0 393.0,162.0 394.0,162.0 395.0,161.0 396.0,161.0 397.0,160.0 398.0,160.0 399.0,159.0 399.0,158.0 400.0,157.0 400.0,155.0 401.0,154.0 401.0,153.0 402.0,152.0 402.0,150.0 403.0,149.0 403.0,148.0 404.0,147.0 404.0,146.0 406.0,144.0 406.0,143.0 408.0,141.0 408.0,140.0 410.0,138.0 408.0,138.0 407.0,139.0 405.0,139.0 404.0,140.0 403.0,140.0 402.0,141.0 400.0,141.0 399.0,142.0 397.0,142.0 396.0,143.0 395.0,143.0 394.0,144.0 393.0,144.0 392.0,145.0 391.0,145.0 390.0,146.0 388.0,146.0 387.0,147.0 386.0,147.0 385.0,148.0 384.0,148.0 383.0,149.0 382.0,149.0 381.0,150.0 380.0,150.0 379.0,151.0 378.0,151.0 377.0,152.0 376.0,152.0 375.0,153.0 374.0,153.0 373.0,154.0 372.0,154.0 371.0,155.0 370.0,155.0 369.0,156.0 368.0,156.0 367.0,157.0 366.0,157.0 365.0,158.0 364.0,158.0 362.0,160.0 361.0,160.0 360.0,161.0 359.0,161.0 357.0,163.0 356.0,163.0 355.0,164.0 354.0,164.0 352.0,166.0 351.0,166.0 350.0,167.0 349.0,167.0 347.0,169.0 346.0,169.0 344.0,171.0 343.0,171.0 341.0,173.0 340.0,173.0 337.0,176.0 336.0,176.0 333.0,179.0 332.0,179.0 329.0,182.0 328.0,182.0 325.0,185.0 324.0,185.0 318.0,191.0 317.0,191.0 308.0,200.0 307.0,200.0 296.0,211.0 295.0,210.0 296.0,211.0 296.0,212.0 286.0,222.0 286.0,223.0 281.0,228.0 281.0,229.0 277.0,233.0 277.0,234.0 274.0,237.0 274.0,238.0 271.0,241.0 271.0,242.0 268.0,245.0 268.0,246.0 266.0,248.0 266.0,249.0 264.0,251.0 264.0,252.0 262.0,254.0 262.0,255.0 261.0,256.0 261.0,257.0 259.0,259.0 259.0,260.0 257.0,262.0 257.0,263.0 256.0,264.0 256.0,265.0 254.0,267.0 254.0,268.0 253.0,269.0 253.0,270.0 252.0,271.0 252.0,272.0 251.0,273.0 251.0,274.0 249.0,276.0 249.0,277.0 248.0,278.0 248.0,279.0 247.0,280.0 247.0,281.0 246.0,282.0 246.0,283.0 245.0,284.0 245.0,285.0 244.0,286.0 244.0,288.0 243.0,289.0 243.0,290.0 242.0,291.0 242.0,292.0 241.0,293.0 241.0,294.0 240.0,295.0 240.0,296.0 239.0,297.0 239.0,299.0 238.0,300.0 238.0,301.0 237.0,302.0 237.0,304.0 236.0,305.0 236.0,306.0 235.0,307.0 235.0,309.0 234.0,310.0 234.0,311.0 233.0,312.0 233.0,314.0 232.0,315.0 232.0,317.0 231.0,318.0 231.0,320.0 230.0,321.0 230.0,323.0 229.0,324.0 229.0,326.0 228.0,327.0 228.0,330.0 227.0,331.0 227.0,333.0 226.0,334.0 226.0,337.0 225.0,338.0 225.0,341.0 224.0,342.0 224.0,345.0 223.0,346.0 223.0,349.0 222.0,350.0 222.0,354.0 221.0,355.0 221.0,359.0 220.0,360.0 220.0,365.0 219.0,366.0 219.0,371.0 218.0,372.0 218.0,380.0 217.0,381.0 217.0,390.0 216.0,391.0 216.0,407.0 215.0,408.0 215.0,426.0 216.0,427.0 216.0,443.0 217.0,444.0 217.0,452.0 218.0,453.0 218.0,460.0 219.0,461.0 219.0,466.0 220.0,467.0 220.0,472.0 221.0,473.0 221.0,477.0 222.0,478.0 222.0,482.0 223.0,483.0 223.0,487.0 224.0,488.0 224.0,491.0 225.0,492.0 225.0,494.0 226.0,495.0 226.0,498.0 227.0,499.0 227.0,502.0 228.0,503.0 228.0,505.0 229.0,506.0 229.0,508.0 230.0,509.0 230.0,511.0 231.0,512.0 231.0,514.0 232.0,515.0 232.0,517.0 233.0,518.0 233.0,520.0 234.0,521.0 234.0,523.0 235.0,524.0 235.0,525.0 236.0,526.0 236.0,528.0 237.0,529.0 237.0,530.0 238.0,531.0 238.0,533.0 239.0,534.0 239.0,535.0 240.0,536.0 240.0,537.0 241.0,538.0 241.0,540.0 242.0,541.0 242.0,542.0 243.0,543.0 243.0,544.0 244.0,545.0 244.0,546.0 245.0,547.0 245.0,548.0 246.0,549.0 246.0,550.0 247.0,551.0 247.0,553.0 249.0,555.0 249.0,556.0 250.0,557.0 250.0,558.0 251.0,559.0 251.0,560.0 252.0,561.0 252.0,562.0 253.0,563.0 253.0,564.0 254.0,565.0 254.0,566.0 256.0,568.0 256.0,569.0 257.0,570.0 257.0,571.0 259.0,573.0 259.0,574.0 260.0,575.0 260.0,576.0 262.0,578.0 262.0,579.0 264.0,581.0 264.0,582.0 265.0,583.0 265.0,584.0 267.0,586.0 267.0,587.0 270.0,590.0 270.0,591.0 272.0,593.0 272.0,594.0 275.0,597.0 275.0,598.0 278.0,601.0 278.0,602.0 281.0,605.0 281.0,606.0 286.0,611.0 286.0,612.0 292.0,618.0 292.0,619.0 317.0,644.0 318.0,644.0 324.0,650.0 325.0,650.0 329.0,654.0 330.0,654.0 333.0,657.0 334.0,657.0 338.0,661.0 339.0,661.0 341.0,663.0 342.0,663.0 344.0,665.0 345.0,665.0 348.0,668.0 349.0,668.0 351.0,670.0 352.0,670.0 354.0,672.0 355.0,672.0 356.0,673.0 357.0,673.0 359.0,675.0 360.0,675.0 362.0,677.0 363.0,677.0 364.0,678.0 365.0,678.0 367.0,680.0 368.0,680.0 369.0,681.0 370.0,681.0 371.0,682.0 372.0,682.0 373.0,683.0 374.0,683.0 375.0,684.0 376.0,684.0 378.0,686.0 379.0,686.0 380.0,687.0 381.0,687.0 382.0,688.0 383.0,688.0 384.0,689.0 385.0,689.0 386.0,690.0 387.0,690.0 388.0,691.0 389.0,691.0 390.0,692.0 392.0,692.0 393.0,693.0 394.0,693.0 395.0,694.0 396.0,694.0 397.0,695.0 398.0,695.0 399.0,696.0 401.0,696.0 402.0,697.0 403.0,697.0 404.0,698.0 406.0,698.0 407.0,699.0 408.0,699.0 409.0,700.0 411.0,700.0 412.0,701.0 414.0,701.0 415.0,702.0 416.0,702.0 417.0,703.0 419.0,703.0 420.0,704.0 422.0,704.0 423.0,705.0 426.0,705.0 427.0,706.0 429.0,706.0 430.0,707.0 432.0,707.0 433.0,708.0 436.0,708.0 437.0,709.0 440.0,709.0 441.0,710.0 444.0,710.0 445.0,711.0 448.0,711.0 449.0,712.0 452.0,712.0 453.0,713.0 457.0,713.0 458.0,714.0 463.0,714.0 464.0,715.0 469.0,715.0 470.0,716.0 476.0,716.0 477.0,717.0 487.0,717.0 488.0,718.0 513.0,718.0 514.0,719.0 515.0,718.0 535.0,718.0 536.0,717.0 546.0,717.0 547.0,716.0 553.0,716.0 554.0,715.0 559.0,715.0 560.0,714.0 565.0,714.0 566.0,713.0 570.0,713.0 571.0,712.0 575.0,712.0 576.0,711.0 579.0,711.0 580.0,710.0 583.0,710.0 584.0,709.0 587.0,709.0 588.0,708.0 591.0,708.0 592.0,707.0 594.0,707.0 595.0,706.0 597.0,706.0 598.0,705.0 600.0,705.0 601.0,704.0 603.0,704.0 604.0,703.0 606.0,703.0 607.0,702.0 609.0,702.0 610.0,701.0 612.0,701.0 613.0,700.0 615.0,700.0 616.0,699.0 617.0,699.0 618.0,698.0 620.0,698.0 621.0,697.0 622.0,697.0 623.0,696.0 624.0,696.0 625.0,695.0 627.0,695.0 628.0,694.0 629.0,694.0 630.0,693.0 631.0,693.0 632.0,692.0 633.0,692.0 634.0,691.0 635.0,691.0 636.0,690.0 637.0,690.0 638.0,689.0 639.0,689.0 640.0,688.0 641.0,688.0 642.0,687.0 643.0,687.0 644.0,686.0 645.0,686.0 646.0,685.0 647.0,685.0 648.0,684.0 649.0,684.0 650.0,683.0 651.0,683.0 652.0,682.0 653.0,682.0 655.0,680.0 656.0,680.0 657.0,679.0 658.0,679.0 660.0,677.0 661.0,677.0 662.0,676.0 663.0,676.0 665.0,674.0 666.0,674.0 668.0,672.0 669.0,672.0 670.0,671.0 671.0,671.0 673.0,669.0 674.0,669.0 677.0,666.0 678.0,666.0 680.0,664.0 681.0,664.0 684.0,661.0 685.0,661.0 688.0,658.0 689.0,658.0 692.0,655.0 693.0,655.0 697.0,651.0 698.0,651.0 704.0,645.0 705.0,645.0 732.0,618.0 732.0,617.0 738.0,611.0 738.0,610.0 742.0,606.0 742.0,605.0 746.0,601.0 746.0,600.0 748.0,598.0 748.0,597.0 751.0,594.0 751.0,593.0 754.0,590.0 754.0,589.0 756.0,587.0 756.0,586.0 758.0,584.0 758.0,583.0 760.0,581.0 760.0,580.0 761.0,579.0 761.0,578.0 763.0,576.0 763.0,575.0 765.0,573.0 765.0,572.0 766.0,571.0 766.0,570.0 768.0,568.0 768.0,567.0 769.0,566.0 769.0,565.0 770.0,564.0 770.0,563.0 771.0,562.0 771.0,561.0 773.0,559.0 773.0,558.0 774.0,557.0 774.0,556.0 775.0,555.0 775.0,554.0 776.0,553.0 776.0,552.0 777.0,551.0 777.0,550.0 778.0,549.0 778.0,548.0 779.0,547.0 779.0,546.0 780.0,545.0 780.0,543.0 781.0,542.0 781.0,541.0 782.0,540.0 782.0,539.0 783.0,538.0 783.0,537.0 784.0,536.0 784.0,534.0 785.0,533.0 785.0,532.0 786.0,531.0 786.0,529.0 787.0,528.0 787.0,527.0 788.0,526.0 788.0,524.0 789.0,523.0 789.0,522.0 790.0,521.0 790.0,519.0 791.0,518.0 791.0,516.0 792.0,515.0 792.0,513.0 793.0,512.0 793.0,510.0 794.0,509.0 794.0,507.0 795.0,506.0 795.0,503.0 796.0,502.0 796.0,500.0 797.0,499.0 797.0,497.0 798.0,496.0 798.0,493.0 799.0,492.0 799.0,489.0 800.0,488.0 800.0,485.0 801.0,484.0 801.0,480.0 802.0,479.0 802.0,475.0 803.0,474.0 803.0,470.0 804.0,469.0 804.0,464.0 805.0,463.0 805.0,456.0 806.0,455.0 806.0,448.0 807.0,447.0 807.0,436.0 808.0,435.0 808.0,396.0 807.0,395.0 807.0,385.0 806.0,384.0 806.0,376.0 805.0,375.0 805.0,369.0 804.0,368.0 804.0,363.0 803.0,362.0 803.0,357.0 802.0,356.0 802.0,352.0 801.0,351.0 801.0,348.0 800.0,347.0 800.0,343.0 799.0,342.0 799.0,339.0 798.0,338.0 798.0,335.0 797.0,334.0 797.0,332.0 796.0,331.0 796.0,329.0 795.0,328.0 795.0,325.0 794.0,324.0 794.0,322.0 793.0,321.0 793.0,319.0 792.0,318.0 792.0,316.0 791.0,315.0 791.0,313.0 790.0,312.0 790.0,311.0 789.0,310.0 789.0,308.0 788.0,307.0 788.0,306.0 787.0,305.0 787.0,303.0 786.0,302.0 786.0,300.0 785.0,299.0 785.0,298.0 784.0,297.0 784.0,296.0 783.0,295.0 783.0,294.0 782.0,293.0 782.0,291.0 781.0,290.0 781.0,289.0 780.0,288.0 780.0,287.0 779.0,286.0 779.0,285.0 778.0,284.0 778.0,283.0 777.0,282.0 777.0,281.0 776.0,280.0 776.0,279.0 775.0,278.0 775.0,277.0 774.0,276.0 774.0,275.0 773.0,274.0 773.0,273.0 772.0,272.0 772.0,271.0 770.0,269.0 770.0,268.0 769.0,267.0 769.0,266.0 768.0,265.0 768.0,264.0 766.0,262.0 766.0,261.0 765.0,260.0 765.0,259.0 763.0,257.0 763.0,256.0 761.0,254.0 761.0,253.0 759.0,251.0 759.0,250.0 757.0,248.0 757.0,247.0 755.0,245.0 755.0,244.0 752.0,241.0 752.0,240.0 750.0,238.0 750.0,237.0 747.0,234.0 747.0,233.0 742.0,228.0 742.0,227.0 737.0,222.0 737.0,221.0 726.0,210.0 726.0,209.0 720.0,203.0 719.0,203.0 718.0,202.0 718.0,201.0 717.0,201.0 708.0,192.0 707.0,192.0 702.0,187.0 701.0,187.0 697.0,183.0 696.0,183.0 693.0,180.0 692.0,180.0 689.0,177.0 688.0,177.0 686.0,175.0 685.0,175.0 683.0,173.0 682.0,173.0 679.0,170.0 678.0,170.0 677.0,169.0 676.0,169.0 674.0,167.0 673.0,167.0 671.0,165.0 670.0,165.0 668.0,163.0 667.0,163.0 666.0,162.0 665.0,162.0 664.0,161.0 663.0,161.0 661.0,159.0 660.0,159.0 659.0,158.0 658.0,158.0 657.0,157.0 656.0,157.0 655.0,156.0 654.0,156.0 652.0,154.0 651.0,154.0 650.0,153.0 649.0,153.0 648.0,152.0 647.0,152.0 646.0,151.0 645.0,151.0 644.0,150.0 643.0,150.0 642.0,149.0 640.0,149.0 639.0,148.0 638.0,148.0 637.0,147.0 636.0,147.0 635.0,146.0 634.0,146.0 633.0,145.0 632.0,145.0 631.0,144.0 629.0,144.0 628.0,143.0 627.0,143.0 626.0,142.0 624.0,142.0 623.0,141.0 622.0,141.0 621.0,140.0 619.0,140.0 618.0,139.0 616.0,139.0 615.0,138.0 614.0,138.0 613.0,137.0" /><polygon fill="black" points="408.0,136.0" /><polygon fill="black" points="577.0,120.0" /><polygon fill="black" points="565.0,112.0" /><polygon fill="black" points="557.0,108.0" /><polygon fill="black" points="471.0,106.0" /><polygon fill="black" points="483.0,102.0" /><polygon fill="black" points="498.0,101.0 497.0,102.0 491.0,102.0 490.0,103.0 487.0,103.0 486.0,104.0 483.0,104.0 482.0,105.0 479.0,105.0 478.0,106.0 476.0,106.0 475.0,107.0 474.0,107.0 473.0,108.0 471.0,108.0 470.0,109.0 469.0,109.0 468.0,110.0 466.0,110.0 465.0,111.0 464.0,111.0 463.0,112.0 462.0,112.0 461.0,113.0 460.0,113.0 458.0,115.0 457.0,115.0 456.0,116.0 455.0,116.0 453.0,118.0 452.0,118.0 450.0,120.0 449.0,120.0 446.0,123.0 445.0,123.0 441.0,127.0 440.0,127.0 431.0,136.0 431.0,137.0 426.0,142.0 426.0,143.0 423.0,146.0 423.0,147.0 421.0,149.0 421.0,150.0 420.0,151.0 420.0,152.0 418.0,154.0 418.0,155.0 417.0,156.0 417.0,157.0 416.0,158.0 416.0,159.0 415.0,160.0 415.0,161.0 414.0,162.0 414.0,163.0 413.0,164.0 413.0,165.0 412.0,166.0 412.0,168.0 411.0,169.0 411.0,170.0 410.0,171.0 410.0,173.0 409.0,174.0 409.0,176.0 408.0,177.0 408.0,180.0 407.0,181.0 407.0,184.0 406.0,185.0 406.0,190.0 405.0,191.0 405.0,216.0 406.0,217.0 406.0,222.0 407.0,223.0 407.0,226.0 408.0,227.0 408.0,230.0 409.0,231.0 409.0,233.0 410.0,234.0 410.0,236.0 411.0,237.0 411.0,238.0 412.0,239.0 412.0,241.0 413.0,242.0 413.0,243.0 414.0,244.0 414.0,245.0 415.0,246.0 415.0,247.0 416.0,248.0 416.0,249.0 417.0,250.0 417.0,251.0 418.0,252.0 418.0,253.0 419.0,254.0 419.0,255.0 420.0,256.0 420.0,257.0 422.0,259.0 422.0,260.0 423.0,261.0 423.0,262.0 424.0,263.0 424.0,264.0 425.0,265.0 425.0,266.0 427.0,268.0 427.0,269.0 428.0,270.0 428.0,271.0 429.0,272.0 429.0,273.0 431.0,275.0 431.0,276.0 432.0,277.0 432.0,278.0 433.0,279.0 433.0,280.0 435.0,282.0 435.0,283.0 436.0,284.0 436.0,285.0 438.0,287.0 438.0,288.0 439.0,289.0 439.0,290.0 440.0,291.0 440.0,292.0 442.0,294.0 442.0,295.0 444.0,297.0 444.0,298.0 445.0,299.0 445.0,300.0 447.0,302.0 447.0,303.0 448.0,304.0 448.0,305.0 450.0,307.0 450.0,308.0 452.0,310.0 452.0,311.0 454.0,313.0 454.0,314.0 456.0,316.0 456.0,317.0 457.0,318.0 457.0,319.0 459.0,321.0 459.0,322.0 461.0,324.0 461.0,325.0 463.0,327.0 463.0,328.0 465.0,330.0 465.0,331.0 467.0,333.0 467.0,334.0 469.0,336.0 469.0,337.0 471.0,339.0 471.0,340.0 473.0,342.0 473.0,343.0 475.0,345.0 475.0,346.0 478.0,349.0 478.0,350.0 480.0,352.0 480.0,353.0 482.0,355.0 482.0,356.0 485.0,359.0 485.0,360.0 487.0,362.0 487.0,363.0 490.0,366.0 490.0,367.0 492.0,369.0 492.0,370.0 495.0,373.0 495.0,374.0 498.0,377.0 498.0,378.0 500.0,380.0 500.0,381.0 503.0,384.0 503.0,385.0 506.0,388.0 506.0,389.0 509.0,392.0 509.0,393.0 512.0,396.0 512.0,395.0 515.0,392.0 515.0,391.0 518.0,388.0 518.0,387.0 521.0,384.0 521.0,383.0 524.0,380.0 524.0,379.0 526.0,377.0 526.0,376.0 529.0,373.0 529.0,372.0 531.0,370.0 531.0,369.0 534.0,366.0 534.0,365.0 536.0,363.0 536.0,362.0 539.0,359.0 539.0,358.0 541.0,356.0 541.0,355.0 543.0,353.0 543.0,352.0 546.0,349.0 546.0,348.0 548.0,346.0 548.0,345.0 550.0,343.0 550.0,342.0 552.0,340.0 552.0,339.0 554.0,337.0 554.0,336.0 556.0,334.0 556.0,333.0 558.0,331.0 558.0,330.0 560.0,328.0 560.0,327.0 562.0,325.0 562.0,324.0 563.0,323.0 563.0,322.0 565.0,320.0 565.0,319.0 567.0,317.0 567.0,316.0 569.0,314.0 569.0,313.0 570.0,312.0 570.0,311.0 572.0,309.0 572.0,308.0 574.0,306.0 574.0,305.0 575.0,304.0 575.0,303.0 577.0,301.0 577.0,300.0 578.0,299.0 578.0,298.0 580.0,296.0 580.0,295.0 582.0,293.0 582.0,292.0 583.0,291.0 583.0,290.0 584.0,289.0 584.0,288.0 586.0,286.0 586.0,285.0 587.0,284.0 587.0,283.0 589.0,281.0 589.0,280.0 590.0,279.0 590.0,278.0 591.0,277.0 591.0,276.0 593.0,274.0 593.0,273.0 594.0,272.0 594.0,271.0 595.0,270.0 595.0,269.0 597.0,267.0 597.0,266.0 598.0,265.0 598.0,264.0 599.0,263.0 599.0,262.0 601.0,260.0 601.0,259.0 602.0,258.0 602.0,257.0 603.0,256.0 603.0,255.0 604.0,254.0 604.0,253.0 605.0,252.0 605.0,251.0 607.0,249.0 607.0,247.0 608.0,246.0 608.0,245.0 609.0,244.0 609.0,243.0 610.0,242.0 610.0,241.0 611.0,240.0 611.0,238.0 612.0,237.0 612.0,236.0 613.0,235.0 613.0,233.0 614.0,232.0 614.0,229.0 615.0,228.0 615.0,225.0 616.0,224.0 616.0,220.0 617.0,219.0 617.0,211.0 618.0,210.0 618.0,197.0 617.0,196.0 617.0,188.0 616.0,187.0 616.0,183.0 615.0,182.0 615.0,179.0 614.0,178.0 614.0,176.0 613.0,175.0 613.0,173.0 612.0,172.0 612.0,170.0 611.0,169.0 611.0,167.0 610.0,166.0 610.0,165.0 609.0,164.0 609.0,163.0 608.0,162.0 608.0,161.0 607.0,160.0 607.0,159.0 606.0,158.0 606.0,157.0 605.0,156.0 605.0,155.0 604.0,154.0 604.0,153.0 602.0,151.0 602.0,150.0 600.0,148.0 600.0,147.0 598.0,145.0 598.0,144.0 595.0,141.0 595.0,140.0 589.0,134.0 589.0,133.0 585.0,129.0 584.0,129.0 578.0,123.0 577.0,123.0 574.0,120.0 573.0,120.0 571.0,118.0 570.0,118.0 568.0,116.0 567.0,116.0 566.0,115.0 565.0,115.0 563.0,113.0 562.0,113.0 561.0,112.0 560.0,112.0 559.0,111.0 558.0,111.0 557.0,110.0 555.0,110.0 554.0,109.0 553.0,109.0 552.0,108.0 551.0,108.0 550.0,107.0 548.0,107.0 547.0,106.0 545.0,106.0 544.0,105.0 541.0,105.0 540.0,104.0 538.0,104.0 537.0,103.0 533.0,103.0 532.0,102.0 526.0,102.0 525.0,101.0" /><polygon fill="black" points="487.0,101.0 488.0,101.0" /><polygon fill="black" points="530.0,100.0 533.0,100.0" /><polygon fill="black" points="491.0,100.0 492.0,100.0" /><polygon fill="black" points="526.0,99.0" /><polygon fill="black" points="499.0,99.0 500.0,99.0" /><polygon fill="black" points="497.0,99.0" /><polygon fill="black" points="513.0,98.0 514.0,98.0" /><polygon fill="black" points="511.0,98.0" /></svg>